<svg xmlns="http://www.w3.org/2000/svg" viewBox="0 0 21.46 36.48"><g id="katman_2" data-name="katman 2"><g id="katman_1-2" data-name="katman 1"><path d="M16,14l-1,21.5a1.08,1.08,0,0,1-1.07,1H7.51a1.08,1.08,0,0,1-1.07-1L5.42,14H1.08a1.08,1.08,0,0,1-.84-1.76L9.9.39a1.08,1.08,0,0,1,1.66,0l9.66,11.8A1.08,1.08,0,0,1,20.39,14Zm4.34,21.52a1.07,1.07,0,1,1-2.14-.14l1.08-16.62a1.07,1.07,0,0,1,1.14-1,1.08,1.08,0,0,1,1,1.14ZM3.22,35.33a1.08,1.08,0,0,1-1,1.15,1.09,1.09,0,0,1-1.14-1L0,18.84a1.08,1.08,0,1,1,2.15-.13Z"/></g></g></svg>