<svg xmlns="http://www.w3.org/2000/svg" viewBox="0 0 48.76 48.76"><g id="katman_2" data-name="katman 2"><g id="katman_1-2" data-name="katman 1"><path d="M42,30.35a22.25,22.25,0,0,1-3.29,1.71,5.47,5.47,0,0,1-2.17.44,5.55,5.55,0,0,1-2.18-.44,25.79,25.79,0,0,1-6-3.62H9l3-6.9a2,2,0,0,1,1.85-1.22h8a16.36,16.36,0,0,1-1.26-4.07H13.84a6.13,6.13,0,0,0-5.59,3.66l-4,9.24s0,.09,0,.14A7.6,7.6,0,0,0,0,36.06v7.62a5.08,5.08,0,0,0,10.16,0v-1H34.54v1a5.08,5.08,0,1,0,10.15,0V36.06A7.41,7.41,0,0,0,42,30.35M12.19,38.6H8.13a2,2,0,1,1,0-4.06h4.06a2,2,0,0,1,0,4.06m24.38,0H32.5a2,2,0,0,1,0-4.06h4.07a2,2,0,0,1,0,4.06"/><path d="M47.72,3.71,37.06.08a1.5,1.5,0,0,0-1,0L25.41,3.71a1.52,1.52,0,0,0-1,1.44v8.16c0,10,11.12,14.81,11.59,15a1.54,1.54,0,0,0,1.19,0c.48-.2,11.6-5,11.6-15V5.15a1.53,1.53,0,0,0-1-1.44m-4.48,7.7-5.58,7.11a2,2,0,0,1-2.92.29l-3.56-3a2,2,0,1,1,2.65-3.09l1.94,1.67,4.28-5.44a2,2,0,0,1,3.19,2.5"/></g></g></svg>