<svg xmlns="http://www.w3.org/2000/svg" viewBox="0 0 53.42 25.44"><g id="katman_2" data-name="katman 2"><g id="katman_1-2" data-name="katman 1"><path d="M12.29,14.41a5.52,5.52,0,1,0,5.52,5.51,5.51,5.51,0,0,0-5.52-5.51m0,8.06a2.55,2.55,0,1,1,2.55-2.55,2.55,2.55,0,0,1-2.55,2.55"/><path d="M42.82,14.41a5.52,5.52,0,1,0,5.51,5.51,5.51,5.51,0,0,0-5.51-5.51m0,8.06a2.55,2.55,0,1,1,2.54-2.55,2.55,2.55,0,0,1-2.54,2.55"/><path d="M50.17,9.86l-9.9-1.8-8.42-7a4.73,4.73,0,0,0-3-1.06H16.47a4.64,4.64,0,0,0-3.64,1.75L7.44,8.06H3.82A3.81,3.81,0,0,0,0,11.87v4.66A4.67,4.67,0,0,0,4.66,21.2h1A6.79,6.79,0,0,1,19,18.64a6.89,6.89,0,0,1,0,2.56H36.15a6.79,6.79,0,0,1,13.33-2.56,6.89,6.89,0,0,1,0,2.56h.12a3.82,3.82,0,0,0,3.81-3.82V13.63a3.79,3.79,0,0,0-3.24-3.77M18.65,6.78a1.27,1.27,0,0,1-1.27,1.28H11.79a.64.64,0,0,1-.64-.64A.62.62,0,0,1,11.31,7L15,2.67a1.26,1.26,0,0,1,1-.44h1.41A1.27,1.27,0,0,1,18.65,3.5ZM25,12.72H23.32a1.27,1.27,0,1,1,0-2.54H25a1.27,1.27,0,1,1,0,2.54M35,8.09l-12.14,0a1.27,1.27,0,0,1-1.27-1.27V3.5a1.27,1.27,0,0,1,1.27-1.27H29a1.26,1.26,0,0,1,.79.27L35.42,7a.64.64,0,0,1,.11.89.63.63,0,0,1-.5.25"/></g></g></svg>