<svg xmlns="http://www.w3.org/2000/svg" viewBox="0 0 49.22 49.22"><g id="katman_2" data-name="katman 2"><g id="katman_1-2" data-name="katman 1"><path d="M24.61,24.61a1.44,1.44,0,1,1-1.44,1.44,1.44,1.44,0,0,1,1.44-1.44"/><path d="M24.61,0A24.61,24.61,0,1,0,49.22,24.61,24.66,24.66,0,0,0,24.61,0m0,5.86A18.78,18.78,0,0,1,43.13,21.72h-5a11.32,11.32,0,0,1-8.26-3.49,7.22,7.22,0,0,0-10.52,0,11.32,11.32,0,0,1-8.26,3.49h-5A18.77,18.77,0,0,1,24.61,5.86m0,24.52a4.33,4.33,0,1,1,4.32-4.33,4.34,4.34,0,0,1-4.32,4.33M7.15,31.44a11.36,11.36,0,0,1,4.48-1.06,8.65,8.65,0,0,1,8.55,9.94h0a8.74,8.74,0,0,1-.68,2.32A18.84,18.84,0,0,1,7.15,31.44m22.57,11.2A8.44,8.44,0,0,1,29,40.32h0a8.66,8.66,0,0,1,10.61-9.7,22.33,22.33,0,0,1,2.42.82,18.8,18.8,0,0,1-12.34,11.2"/></g></g></svg>