<svg xmlns="http://www.w3.org/2000/svg" viewBox="0 0 53.58 47.96"><g id="katman_2" data-name="katman 2"><g id="katman_1-2" data-name="katman 1"><path d="M9.64,23A9.65,9.65,0,0,0,0,32.66c0,2.69,1.47,5.93,4.37,9.65A44,44,0,0,0,8.57,47l1.07,1,1.07-1a44,44,0,0,0,4.2-4.65c2.9-3.72,4.37-7,4.37-9.65A9.65,9.65,0,0,0,9.64,23m0,12.76a3.12,3.12,0,1,1,3.12-3.12,3.12,3.12,0,0,1-3.12,3.12"/><path d="M43.94,0A9.65,9.65,0,0,0,34.3,9.64c0,2.69,1.47,5.93,4.36,9.65a43.45,43.45,0,0,0,4.21,4.65l1.07,1,1.07-1a45.28,45.28,0,0,0,4.2-4.65c2.9-3.72,4.37-7,4.37-9.65A9.65,9.65,0,0,0,43.94,0m0,12.76a3.12,3.12,0,1,1,3.12-3.12,3.12,3.12,0,0,1-3.12,3.12"/><path d="M38.18,47.38H15.92V44.24H38.18a4.19,4.19,0,1,0,0-8.37H29.4a7.33,7.33,0,0,1,0-14.65h8.26v3.14H29.4a4.19,4.19,0,0,0,0,8.37h8.78a7.33,7.33,0,1,1,0,14.65"/></g></g></svg>