<svg xmlns="http://www.w3.org/2000/svg" viewBox="0 0 39.65 36.35"><g id="katman_2" data-name="katman 2"><g id="katman_1-2" data-name="katman 1"><path d="M28.91,8.26a8.26,8.26,0,1,0-8.26,8.26,8.28,8.28,0,0,0,8.26-8.26m-9.08,4.48v-.51a2.49,2.49,0,0,1-1.33-1.08.83.83,0,0,1,1.43-.83.83.83,0,1,0,.72-1.23,2.47,2.47,0,0,1-.82-4.81v-.5a.83.83,0,0,1,1.65,0v.51A2.53,2.53,0,0,1,22.8,5.36a.83.83,0,0,1-.3,1.13.84.84,0,0,1-1.13-.29.82.82,0,1,0-.72,1.23,2.48,2.48,0,0,1,.83,4.81v.5a.83.83,0,0,1-1.65,0"/><path d="M32.27,29.74A3.31,3.31,0,1,1,29,33a3.31,3.31,0,0,1,3.3-3.3"/><path d="M37.05,26.24A30.21,30.21,0,0,0,32,24.77a5.74,5.74,0,0,1-2.21-.94,28,28,0,0,0-5-2.81,10.1,10.1,0,0,0-3-.91,28.33,28.33,0,0,0-3.75-.28c-1,0-2.07,0-3.14.12A11.66,11.66,0,0,0,10,21.6l-3.42,2a6.11,6.11,0,0,1-1.56.69l-2.68.79A2.08,2.08,0,0,0,.9,27a3.85,3.85,0,0,1-.44,1.57A3.4,3.4,0,0,0,0,30.3v.57a3,3,0,0,0,3,3H4.2A5.69,5.69,0,0,1,4.13,33,5,5,0,0,1,14,33a5.69,5.69,0,0,1-.07.83H27.39a5.69,5.69,0,0,1-.07-.83,5,5,0,0,1,9.91,0,4.57,4.57,0,0,1-.07.83h.58A1.92,1.92,0,0,0,39.65,32v-1.9a4.1,4.1,0,0,0-2.6-3.81M9.29,24l1.6-.94a9.86,9.86,0,0,1,4.18-1.42c.77-.07,1.55-.1,2.31-.11L18,24Zm13.05,0H19.65l-.56-2.43c.82,0,1.64.11,2.49.22a8.64,8.64,0,0,1,2.49.77c1.08.49,2,1,2.84,1.44Z"/><path d="M9.09,29.74A3.31,3.31,0,1,1,5.78,33a3.3,3.3,0,0,1,3.31-3.3"/></g></g></svg>